<?xml version="1.0" encoding="UTF-8" standalone="no"?>
<svg xmlns:rdf="http://www.w3.org/1999/02/22-rdf-syntax-ns#" xmlns="http://www.w3.org/2000/svg" xml:space="preserve" height="33.407" viewBox="0 0 154.9758 33.40733" width="154.98" version="1.1" xmlns:cc="http://creativecommons.org/ns#" xmlns:dc="http://purl.org/dc/elements/1.1/"><g transform="matrix(1.25 0 0 -1.25 -305.95 512.61)"><path d="m67.299 1.0273v2.5196h1.596l2.804 11.264h3.932l1.869-7.0493 1.791 7.0493h3.934l2.959-11.264 1.517-0.0001v-2.5196h-5.412v2.5196h1.791l-1.947 7.3301-2.414-9.8497h-2.492l-2.647 9.9277-1.908-7.4081h1.947v-2.5196h-7.32zm75.821 21.106c-1.95 0-3.04 2.031-3.04 3.961 0 1.928 1.09 3.961 3.04 3.961s3.04-2.033 3.04-3.961c0-1.93-1.09-3.961-3.04-3.961zm-13.33 0.064c-2.07 0-3.53 1.851-3.53 3.897 0 2.006 1.46 3.896 3.53 3.896 1.17 0 1.67-0.283 2.08-0.552v-2.997l0.59-0.603h-2.03l0.6 0.603v2.444c-0.18 0.181-0.54 0.541-1.24 0.541-1.69 0-2.54-1.699-2.54-3.332 0-1.646 1.07-3.33 2.54-3.33 0.38 0 0.67 0.089 0.92 0.359l0.84 0.822v-1.31c-0.45-0.232-0.9-0.438-1.76-0.438zm-85.669 0.065c-1.325 0-1.93 1.131-1.93 1.865 0 0.579 0.295 1.234 0.977 1.734l1.557 1.119c0.424 0.297 0.541 0.734 0.541 1.108 0 0.643-0.399 1.338-1.26 1.338-0.206 0-0.387-0.039-0.527-0.104l-0.721-0.849-0.656 1.183 1.453 0.283s0.245 0.051 0.451 0.051c0.912 0 2.109-0.771 2.109-2.211 0-0.747-0.349-1.209-0.709-1.455l-1.543-1.117c-0.552-0.398-0.836-0.914-0.836-1.301 0-0.796 0.682-1.078 1.094-1.078 0.219 0 0.372 0.09 0.488 0.09l0.668 0.721 0.707-1.055-1.504-0.283c-0.102-0.026-0.165-0.039-0.359-0.039zm58.069 0c-1.33 0-1.93 1.131-1.93 1.865 0 0.579 0.3 1.234 0.98 1.734l1.55 1.119c0.43 0.297 0.54 0.734 0.54 1.108 0 0.643-0.39 1.338-1.26 1.338-0.2 0-0.38-0.039-0.53-0.104l-0.71-0.849-0.66 1.183 1.45 0.283s0.25 0.051 0.45 0.051c0.92 0 2.11-0.771 2.11-2.211 0-0.747-0.34-1.209-0.7-1.455l-1.55-1.117c-0.55-0.398-0.83-0.914-0.83-1.301 0-0.796 0.68-1.078 1.09-1.078 0.22 0 0.37 0.09 0.49 0.09l0.67 0.721 0.7-1.055-1.5-0.283c-0.1-0.026-0.17-0.039-0.36-0.039zm-24.378 0.002c-0.619 0-1.27 0.362-1.718 0.896-0.417 0.502-0.695 1.314-0.844 2.18h-0.695l-0.289 0.277 0.033 0.108h0.887c-0.14 0.961-0.268 1.794-0.471 3.14-0.289 1.998-0.535 2.703-0.738 2.873-0.065 0.064-0.17 0.098-0.266 0.098-0.129 0-0.332-0.096-0.471-0.16-0.128-0.064-0.234 0.01-0.299 0.074-0.085 0.096-0.181 0.245-0.181 0.363 0 0.214 0.277 0.321 0.459 0.321 0.203 0 0.716-0.17 1.176-0.737 0.362-0.448 0.855-1.485 1.271-3.9 0.075-0.449 0.16-0.897 0.342-2.072l1.09-0.108 0.234-0.277h-1.26c0.321-1.978 0.588-2.574 1.047-2.574 0.321 0 0.587 0.127 0.822 0.351 0.075 0.075 0.193 0.075 0.299-0.012 0.086-0.074 0.215-0.245 0.215-0.394 0.01-0.214-0.279-0.447-0.643-0.447zm-76.839 0.037l0.65624 0.656v4.898c0 1.247 1.0539 2.2 2.3535 2.2 1.2349 0 2.4571-0.913 2.4571-2.2v-4.898l0.6425-0.656h-1.9804l0.6562 0.656v4.898c0 0.875-0.6939 1.571-1.5683 1.571-0.8872 0-1.6719-0.684-1.6719-1.571v-4.898l0.6562-0.656h-2.2011zm7.8711 0l0.6445 0.656v6.275l-0.6445 0.657h1.9802l-0.654-0.657v-5.685l4.07 6.342h0.262v-6.932l0.656-0.656h-1.98l0.656 0.656v4.822l-3.42-5.478h-1.5702zm8.3862 0l0.604 0.603v6.379l-0.604 0.606h2.043l-0.603-0.606v-6.379l0.603-0.603h-2.043zm3.743 0l0.617 0.603 2.135 6.985h0.384l2.2-6.985 0.617-0.603h-1.826l0.591 0.592-1.607 5.246-1.557-5.246 0.592-0.592h-2.146zm7.445 0l0.592 0.603v6.379l-0.592 0.606h4.539v-1.391l-0.811 0.824h-2.3v-3.189h1.711l0.603 0.603v-1.773l-0.603 0.603h-1.711v-2.699h2.3l0.811 0.809v-1.375h-4.539zm6.521 0l0.59 0.603v6.379l-0.59 0.606h2.032l-0.606-0.606v-2.931h1.145l1.84 3.537h1.259l-0.591-0.606-1.698-3.113c0.85-0.257 1.428-1.053 1.428-1.774 0-1.285-1.196-2.095-2.457-2.095h-2.352zm13.373 0l0.606 0.603v6.379l-0.606 0.606h2.047l-0.605-0.606v-6.379l0.605-0.603h-2.047zm3.795 0v1.375l0.823-0.809h1.427v6.416l-0.591 0.606h2.031l-0.604-0.606v-6.416h1.442l0.808 0.809v-1.375h-5.336zm6.469 0l0.617 0.603 1.916 3.459v2.92l-0.603 0.606h2.043l-0.604-0.606v-2.92l1.955-3.445 0.629-0.617h-1.877l0.592 0.592-1.596 2.841-1.515-2.841 0.59-0.592h-2.147zm24.086 0l0.617 0.603 2.135 6.985h0.385l1.736-5.493 1.686 5.493h0.384l2.202-6.985 0.615-0.603h-1.824l0.59 0.592-1.608 5.246-1.557-5.246 0.592-0.592h-2.146l0.603 0.603 0.155 0.502-1.454 4.733-1.556-5.246 0.592-0.592h-2.147zm12.992 0l-2.404 6.969-0.617 0.619h1.826l-0.592-0.592 0.553-1.609h2.508l0.527 1.609-0.59 0.592h2.147l-0.604-0.619-2.367-6.969h-0.387zm10.526 0l0.59 0.603v6.379l-0.59 0.606h2.03l-0.61-0.606v-3.203h3.19v3.203l-0.6 0.606h2.04l-0.6-0.606v-6.379l0.6-0.603h-2.04l0.6 0.603v2.612h-3.19v-2.612l0.61-0.603h-2.03zm8.16 0l0.61 0.603v6.379l-0.61 0.606h2.05l-0.61-0.606v-6.379l0.61-0.603h-2.05zm4.12 0l0.64 0.656v6.275l-0.64 0.657h1.98l-0.66-0.657v-5.685l4 6.344 0.34-0.002v-6.932l0.65-0.656h-1.98l0.66 0.656v4.822l-3.42-5.478h-1.57zm15.1 0v1.375l0.83-0.811h1.42v6.418l-0.59 0.606h2.03l-0.6-0.606v-6.418h1.44l0.81 0.811v-1.375h-5.34zm14.09 0l0.65 0.656v6.275l-0.65 0.657h1.98l-0.65-0.657v-5.685l3.95 6.342h0.38v-6.932l0.66-0.656h-1.98l0.65 0.656v4.822l-3.42-5.478h-1.57zm-4.53 0.41c1.53 0 2.06 1.813 2.06 3.383 0 1.568-0.53 3.383-2.06 3.383-1.52 0-2.05-1.815-2.05-3.383 0-1.57 0.53-3.383 2.05-3.383zm-106.76 0.156h0.926c0.81 0 1.453 0.693 1.453 1.516 0 0.785-0.656 1.402-1.453 1.402h-0.926v-2.918zm59.328 1.117l1.043 3.139h-2.123l1.08-3.139zm-24.119 1.1c-0.278 0-0.716 0.128-1.154 0.385-0.737 0.438-1.539 1.431-1.539 2.926 0 0.748 0.351 1.582 1.346 1.582 0.469 0 1.145-0.309 1.593-0.715 0.705-0.641 1.121-1.743 1.121-2.694 0-0.887-0.47-1.484-1.367-1.484zm-0.342 0.395c0.534 0 0.844 0.406 0.844 1.228 0.021 1.389-0.705 2.649-1.154 2.799-0.087 0.032-0.224 0.074-0.33 0.074-0.6 0-0.846-0.639-0.846-1.441 0-1.581 0.801-2.436 1.133-2.575 0.095-0.043 0.246-0.085 0.353-0.085z" transform="matrix(.8 0 0 -.8 244.76 410.08)" fill="#4b2e83"/></g></svg>